<svg width="50" height="50" viewBox="0 0 50 50" fill="none" xmlns="http://www.w3.org/2000/svg">
<path d="M41.1562 45.5781H8.84375L11 13.2812H39L41.1562 45.5781Z" fill="black"/>
<path d="M34.375 21.5312H32.1875V13.875C32.1875 11.9522 31.4237 10.1081 30.064 8.74848C28.7044 7.38884 26.8603 6.625 24.9375 6.625C23.0147 6.625 21.1706 7.38884 19.811 8.74848C18.4513 10.1081 17.6875 11.9522 17.6875 13.875V21.5312H15.625V13.875C15.625 11.3886 16.6127 9.00403 18.3709 7.24587C20.129 5.48772 22.5136 4.5 25 4.5C27.4864 4.5 29.871 5.48772 31.6291 7.24587C33.3873 9.00403 34.375 11.3886 34.375 13.875V21.5312Z" fill="black"/>
</svg>
