<svg width="50" height="50" viewBox="0 0 50 50" fill="none" xmlns="http://www.w3.org/2000/svg">
<path d="M41.0559 45.9249H8.94409L11.0869 13.0214H38.913L41.0559 45.9249ZM11.118 43.6963H38.882L36.9255 15.2818H13.0745L11.118 43.6963Z" fill="black"/>
<path d="M34.3168 21.4264H32.1429V13.6263C32.1429 11.6674 31.3838 9.78865 30.0326 8.40347C28.6814 7.0183 26.8488 6.24011 24.9379 6.24011C23.027 6.24011 21.1944 7.0183 19.8432 8.40347C18.492 9.78865 17.7329 11.6674 17.7329 13.6263V21.4264H15.6832V13.6263C15.6832 11.0932 16.6648 8.66383 18.412 6.87265C20.1593 5.08147 22.529 4.0752 25 4.0752C27.471 4.0752 29.8407 5.08147 31.588 6.87265C33.3352 8.66383 34.3168 11.0932 34.3168 13.6263V21.4264Z" fill="black"/>
</svg>
