<svg width="384" height="112" viewBox="0 0 384 112" fill="none" xmlns="http://www.w3.org/2000/svg">
<rect width="180" height="40" transform="translate(102 68)" fill="white"/>
<path d="M117.98 95H119.12V94.1H118.02C117.14 94.1 116.58 93.48 116.58 92.46V85.84H119.12V84.98H116.58V82.18L115.56 82.82V84.98H114.3V85.84H115.56V92.56C115.56 94.08 116.48 95 117.98 95ZM120.772 95H121.812V89.92C121.812 87.34 123.212 85.92 125.072 85.92V84.84H125.032C123.472 84.84 122.352 85.96 121.812 87.58V84.98H120.772V95ZM126.475 95H127.495V84.98H126.475V95ZM126.435 83.48H127.555V81.7H126.435V83.48ZM130.342 95H131.382V92.52C132.022 94.14 133.322 95.14 135.082 95.14C137.382 95.14 139.282 93.18 139.282 90C139.282 86.82 137.562 84.84 135.122 84.84C133.322 84.84 132.022 85.86 131.382 87.46V81H130.342V95ZM131.382 89.98C131.382 87.52 132.842 85.72 134.862 85.72C136.822 85.72 138.182 87.36 138.182 90C138.182 92.64 136.782 94.26 134.802 94.26C132.962 94.26 131.382 92.46 131.382 89.98ZM148.958 84.98H147.938V90C147.758 92.02 146.358 94.24 144.318 94.24C143.118 94.24 142.218 93.6 142.218 91.72V84.98H141.198V91.78C141.198 94.12 142.298 95.14 143.938 95.14C145.838 95.14 147.238 93.78 147.938 92.12V95H148.958V84.98ZM154.289 95H155.429V94.1H154.329C153.449 94.1 152.889 93.48 152.889 92.46V85.84H155.429V84.98H152.889V82.18L151.869 82.82V84.98H150.609V85.84H151.869V92.56C151.869 94.08 152.789 95 154.289 95ZM160.707 95.14C163.067 95.14 164.407 93.64 164.887 92.12L163.947 91.86C163.507 93.06 162.567 94.26 160.747 94.26C158.687 94.26 157.087 92.72 157.087 89.94H164.827C164.867 89.7 164.887 89.44 164.887 89.2C164.887 86.72 163.187 84.84 160.607 84.84C157.787 84.84 155.987 87.02 155.987 89.98C155.987 93.18 157.987 95.14 160.707 95.14ZM157.147 89.12C157.407 87.08 158.667 85.7 160.567 85.7C162.567 85.7 163.787 87.22 163.827 89.12H157.147ZM174.992 95H176.132V94.1H175.032C174.152 94.1 173.592 93.48 173.592 92.46V85.84H176.132V84.98H173.592V82.18L172.572 82.82V84.98H171.312V85.84H172.572V92.56C172.572 94.08 173.492 95 174.992 95ZM181.37 95.12C184.01 95.12 186.07 93.12 186.07 89.98C186.07 86.84 184.01 84.84 181.37 84.84C178.75 84.84 176.69 86.84 176.69 89.98C176.69 93.12 178.75 95.12 181.37 95.12ZM177.79 89.98C177.79 87.28 179.33 85.72 181.37 85.72C183.43 85.72 184.97 87.28 184.97 89.98C184.97 92.7 183.43 94.24 181.37 94.24C179.33 94.24 177.79 92.7 177.79 89.98ZM193.785 83.42V84.98H192.445V85.84H193.785V95H194.825V85.84H197.265V84.98H194.825V83.52C194.825 82.4 195.145 81.88 196.265 81.88H197.445V80.98H196.205C194.525 80.98 193.785 81.84 193.785 83.42ZM198.545 95H199.585V89.92C199.585 87.34 200.985 85.92 202.845 85.92V84.84H202.805C201.245 84.84 200.125 85.96 199.585 87.58V84.98H198.545V95ZM210.251 88.3C210.251 89.12 209.071 89.32 207.391 89.46C205.171 89.64 203.251 90.24 203.251 92.46C203.251 94.18 204.651 95.14 206.431 95.14C208.031 95.14 209.591 94.26 210.251 92.78V95H211.291V88.28C211.291 86.1 210.071 84.84 207.691 84.84C205.511 84.84 204.091 86 203.611 87.54L204.571 87.82C205.011 86.52 206.051 85.72 207.631 85.72C209.411 85.72 210.251 86.72 210.251 88.3ZM204.371 92.34C204.371 90.74 205.711 90.38 207.651 90.22C208.831 90.12 209.791 89.9 210.251 89.38V90.64C210.251 92.92 208.591 94.3 206.751 94.3C205.571 94.3 204.371 93.76 204.371 92.34ZM218.212 99.14C220.712 99.14 222.292 97.6 222.292 94.96V84.98H221.252V87.58C220.632 85.9 219.312 84.84 217.512 84.84C215.212 84.84 213.312 86.8 213.312 89.98C213.312 93.16 215.032 95.14 217.472 95.14C219.312 95.14 220.632 94.08 221.252 92.42V95C221.252 97.06 220.052 98.26 218.212 98.26C216.332 98.26 215.192 97.3 214.852 95.7L213.932 95.96C214.312 97.94 215.852 99.14 218.212 99.14ZM214.412 89.98C214.412 87.34 215.812 85.72 217.792 85.72C219.632 85.72 221.212 87.52 221.212 90C221.212 92.46 219.752 94.26 217.732 94.26C215.772 94.26 214.412 92.62 214.412 89.98ZM225.127 95H226.167V89.92C226.167 87.34 227.567 85.92 229.427 85.92V84.84H229.387C227.827 84.84 226.707 85.96 226.167 87.58V84.98H225.127V95ZM236.833 88.3C236.833 89.12 235.653 89.32 233.973 89.46C231.753 89.64 229.833 90.24 229.833 92.46C229.833 94.18 231.233 95.14 233.013 95.14C234.613 95.14 236.173 94.26 236.833 92.78V95H237.873V88.28C237.873 86.1 236.653 84.84 234.273 84.84C232.093 84.84 230.673 86 230.193 87.54L231.153 87.82C231.593 86.52 232.633 85.72 234.213 85.72C235.993 85.72 236.833 86.72 236.833 88.3ZM230.953 92.34C230.953 90.74 232.293 90.38 234.233 90.22C235.413 90.12 236.373 89.9 236.833 89.38V90.64C236.833 92.92 235.173 94.3 233.333 94.3C232.153 94.3 230.953 93.76 230.953 92.34ZM240.518 95H241.538V89.98C241.718 87.96 243.118 85.74 245.158 85.74C246.358 85.74 247.258 86.38 247.258 88.26V95H248.278V88.2C248.278 85.86 247.178 84.84 245.538 84.84C243.638 84.84 242.238 86.2 241.538 87.86V84.98H240.518V95ZM254.966 95.14C257.166 95.14 258.566 93.7 259.106 91.92L258.106 91.64C257.646 93.08 256.646 94.26 254.986 94.26C253.046 94.26 251.306 92.74 251.306 89.94C251.306 87.32 252.846 85.72 254.806 85.72C256.386 85.72 257.506 86.68 257.926 88.3L258.946 88C258.466 86.12 256.986 84.84 254.886 84.84C252.206 84.84 250.206 86.74 250.206 89.96C250.206 93.24 252.386 95.14 254.966 95.14ZM264.906 95.14C267.266 95.14 268.606 93.64 269.086 92.12L268.146 91.86C267.706 93.06 266.766 94.26 264.946 94.26C262.886 94.26 261.286 92.72 261.286 89.94H269.026C269.066 89.7 269.086 89.44 269.086 89.2C269.086 86.72 267.386 84.84 264.806 84.84C261.986 84.84 260.186 87.02 260.186 89.98C260.186 93.18 262.186 95.14 264.906 95.14ZM261.346 89.12C261.606 87.08 262.866 85.7 264.766 85.7C266.766 85.7 267.986 87.22 268.026 89.12H261.346Z" fill="black"/>
<path d="M22.36 55.816C33.688 55.816 41.656 48.136 41.656 36.952C41.656 25.816 33.688 18.184 22.36 18.184C10.936 18.184 2.968 25.816 2.968 36.952C2.968 48.136 10.936 55.816 22.36 55.816ZM7.624 36.952C7.624 26.632 13.048 18.904 22.36 18.904C31.624 18.904 37.048 26.632 37.048 36.952C37.048 47.368 31.624 55.048 22.36 55.048C13.048 55.048 7.624 47.368 7.624 36.952ZM44.0459 55H55.3259V54.664C52.0619 54.232 51.6779 53.032 51.6779 48.904V23.704C51.6779 19 51.8699 18.184 52.3979 17.656L52.3019 17.368L44.2379 18.808V19.096C47.1659 19.336 47.8379 19.96 47.8379 23.704V48.904C47.8379 53.032 47.4059 54.232 44.0459 54.664V55ZM57.9993 55H70.3353V54.664C65.8713 54.184 65.3433 52.984 65.3433 48.712V32.632H74.1273V31.624H65.2953C65.1033 29.416 64.9593 26.92 64.9593 25.096C64.9593 20.248 66.4953 17.944 69.4713 17.944C72.6393 17.944 74.1753 20.488 74.9433 23.992L77.7273 21.928C76.6233 19.336 73.8393 17.08 69.9033 17.08C65.2953 17.08 61.4553 20.248 61.4553 27.736V31.624H56.3673V32.632H61.4553V48.904C61.4553 53.032 61.1193 54.232 57.9993 54.664V55ZM81.3029 55.576C86.3429 55.576 89.3669 51.928 90.4709 47.32V50.104C90.4709 53.704 92.0549 55.432 94.4549 55.432C96.1829 55.432 97.3349 54.712 98.4869 53.416L98.4389 52.936C97.8149 53.464 97.2869 53.752 96.3749 53.752C94.9829 53.752 94.3109 52.552 94.3109 50.344V38.392C94.3109 32.872 90.7589 30.856 86.1989 30.856C81.7349 30.856 75.9749 33.064 75.7829 39.064H79.3829C79.3829 33.352 83.0789 31.624 85.7669 31.624C88.8869 31.624 90.6149 33.448 90.5669 36.52C90.4709 40.36 88.1189 40.984 83.6069 42.232C77.9909 43.768 74.7269 45.4 74.7269 49.576C74.7269 53.608 77.6069 55.576 81.3029 55.576ZM78.5189 48.856C78.5189 45.256 80.9189 43.96 84.6629 42.808C87.9269 41.8 89.9429 41.176 90.5189 39.544V42.712C90.5189 49.144 87.4949 53.368 82.7909 53.368C80.3909 53.368 78.5189 51.928 78.5189 48.856ZM111.183 55.816C117.327 55.816 121.263 51.64 122.271 45.352H121.695C120.495 50.824 117.327 53.944 112.671 53.944C106.479 53.944 103.935 48.664 103.935 42.328C103.935 35.992 106.671 31.576 111.807 31.576C116.607 31.576 118.095 35.656 118.575 39.4H122.031C121.503 34.792 117.903 30.856 111.663 30.856C104.991 30.856 99.9513 35.608 99.9513 43.432C99.9513 50.92 104.511 55.816 111.183 55.816ZM134.86 55.48C137.74 55.48 140.62 53.416 142.204 48.952L141.82 48.568C140.572 51.88 138.604 53.464 136.396 53.464C134.044 53.464 132.556 52.36 132.556 47.944V32.632H140.668V31.624H132.556V21.784H132.412L128.716 24.904V31.624H123.82V32.632H128.716V47.992C128.716 53.848 131.5 55.48 134.86 55.48ZM155.727 55.768C162.735 55.768 167.487 50.68 167.487 43.288C167.487 35.896 162.735 30.856 155.727 30.856C148.719 30.856 143.967 35.896 143.967 43.288C143.967 50.68 148.719 55.768 155.727 55.768ZM148.047 43.288C148.047 36.232 150.639 31.528 155.775 31.528C160.815 31.528 163.407 36.232 163.407 43.288C163.407 50.344 160.815 55.096 155.775 55.096C150.639 55.096 148.047 50.296 148.047 43.288ZM170.43 55H182.094V54.712C178.206 54.28 177.774 53.176 177.774 49.336V41.896C177.87 38.2 180.51 34.12 187.71 34.648V31.288C181.95 31.288 178.494 35.752 177.774 39.592V37.768C177.774 33.208 178.014 32.104 179.118 31.624H170.43V31.96C173.502 32.44 173.886 33.208 173.886 37.768V48.904C173.886 53.032 173.502 54.232 170.43 54.664V55ZM191.813 66.712C196.565 66.712 199.205 62.824 202.133 55.096L208.805 37.576C210.389 33.496 211.397 32.152 213.269 31.96V31.624H206.261V31.96C209.381 32.248 209.381 33.544 207.845 37.576L202.613 51.64L197.429 37.576C195.893 33.4 195.749 32.296 198.917 31.96V31.624H188.789V31.96C191.141 32.344 191.813 33.88 193.301 37.768L199.973 55H201.221C198.821 61 196.373 63.64 192.629 63.64C191.093 63.64 189.749 63.16 188.885 62.584V66.04C189.749 66.52 191.045 66.712 191.813 66.712ZM226.552 55H240.376C248.584 55 255.832 52.6 255.832 44.68C255.832 38.008 249.208 35.416 242.92 34.984V34.792C249.208 34.216 253.624 31.768 253.624 26.776C253.624 20.536 247.048 18.664 239.608 18.664H226.552V19C230.296 19.432 230.728 20.248 230.728 24.76V48.904C230.728 53.032 230.296 54.232 226.552 54.664V55ZM234.952 54.232V35.272H239.608C246.184 35.272 251.176 38.2 251.176 44.728C251.176 52.36 245.56 54.232 239.8 54.232H234.952ZM234.952 34.504V19.432H239.128C244.504 19.432 249.304 21.112 249.304 26.824C249.304 32.008 244.744 34.504 239.608 34.504H234.952ZM268.685 55.816C273.389 55.816 276.365 52.312 277.661 48.376V48.904C277.661 53.416 277.469 54.52 276.749 55H285.005V54.664C281.933 54.232 281.549 53.416 281.549 48.904V37.768C281.549 33.64 281.933 32.44 285.005 31.96V31.624H274.493V31.96C277.325 32.44 277.661 33.64 277.661 37.768V46.6C276.797 50.536 274.205 53.992 270.413 53.992C267.005 53.992 265.421 51.976 265.421 47.32V37.768C265.421 33.64 265.757 32.44 268.589 31.96V31.624H258.173V31.96C261.197 32.44 261.533 33.64 261.533 37.768V47.464C261.533 53.32 264.125 55.816 268.685 55.816ZM287.008 55H298.672V54.712C294.784 54.28 294.352 53.176 294.352 49.336V41.896C294.448 38.2 297.088 34.12 304.288 34.648V31.288C298.528 31.288 295.072 35.752 294.352 39.592V37.768C294.352 33.208 294.592 32.104 295.696 31.624H287.008V31.96C290.08 32.44 290.464 33.208 290.464 37.768V48.904C290.464 53.032 290.08 54.232 287.008 54.664V55ZM317.105 55.816C323.153 55.816 326.849 51.928 328.145 45.64H327.521C326.177 50.68 323.249 53.848 318.401 53.848C312.353 53.848 309.857 48.568 309.857 42.376C309.857 41.8 309.905 41.224 309.953 40.648H327.809C327.617 35.08 323.729 30.856 317.441 30.856C310.961 30.856 305.873 35.752 305.873 43.432C305.873 50.92 310.337 55.816 317.105 55.816ZM310.049 39.688C310.721 34.888 313.313 31.576 317.393 31.576C321.665 31.576 323.873 35.224 323.969 39.688H310.049ZM338.131 55.576C343.171 55.576 346.195 51.928 347.299 47.32V50.104C347.299 53.704 348.883 55.432 351.283 55.432C353.011 55.432 354.163 54.712 355.315 53.416L355.267 52.936C354.643 53.464 354.115 53.752 353.203 53.752C351.811 53.752 351.139 52.552 351.139 50.344V38.392C351.139 32.872 347.587 30.856 343.027 30.856C338.563 30.856 332.803 33.064 332.611 39.064H336.211C336.211 33.352 339.907 31.624 342.595 31.624C345.715 31.624 347.443 33.448 347.395 36.52C347.299 40.36 344.947 40.984 340.435 42.232C334.819 43.768 331.555 45.4 331.555 49.576C331.555 53.608 334.435 55.576 338.131 55.576ZM335.347 48.856C335.347 45.256 337.747 43.96 341.491 42.808C344.755 41.8 346.771 41.176 347.347 39.544V42.712C347.347 49.144 344.323 53.368 339.619 53.368C337.219 53.368 335.347 51.928 335.347 48.856ZM366.326 55.816C371.03 55.816 374.006 52.312 375.302 48.376V48.904C375.302 53.416 375.11 54.52 374.39 55H382.646V54.664C379.574 54.232 379.19 53.416 379.19 48.904V37.768C379.19 33.64 379.574 32.44 382.646 31.96V31.624H372.134V31.96C374.966 32.44 375.302 33.64 375.302 37.768V46.6C374.438 50.536 371.846 53.992 368.054 53.992C364.646 53.992 363.062 51.976 363.062 47.32V37.768C363.062 33.64 363.398 32.44 366.23 31.96V31.624H355.814V31.96C358.838 32.44 359.174 33.64 359.174 37.768V47.464C359.174 53.32 361.766 55.816 366.326 55.816Z" fill="#232323"/>
</svg>
